<svg width="860" height="110" viewBox="0 0 860 110" fill="none" xmlns="http://www.w3.org/2000/svg">
  <!-- 
    ======================================================================
    WAYAX 1:1 EXACT CHAT PRESET PILLS ROW CONSOLE (860px x 110px)
    Strictly extracted and compiled from the provided React DOM HTML snippet:
    - 0% <style> Blocks (Inlined presentation attributes)
    - 0% foreignObject Tags (Figma native compatible)
    - Specular liquid-glass-panel border-white/10 styling
    - 1:1 exact vector recreations of all Lucide Icons: 
      circle-question-mark, trending-up, triangle-alert, sparkles, search, chevron-down
    ======================================================================
  -->

  <defs>
    <!-- Light leak glowing border gradient -->
    <linearGradient id="preset-leak-border" x1="0" y1="0" x2="860" y2="110" gradientUnits="userSpaceOnUse">
      <stop offset="0%" stop-color="#818cf8" stop-opacity="0.3"/>
      <stop offset="15%" stop-color="#ffffff" stop-opacity="0.1"/>
      <stop offset="100%" stop-color="#ffffff" stop-opacity="0.02"/>
    </linearGradient>

    <!-- Glowing effect for Active/Hover category indicators -->
    <filter id="preset-drop-shadow" x="-5%" y="-20%" width="110%" height="140%">
      <feDropShadow dx="0" dy="8" stdDeviation="15" flood-color="#000000" flood-opacity="0.45"/>
    </filter>
  </defs>

  <!-- ==================== LAYER 1: GLASS CONSOLE CONTAINER ==================== -->
  <rect width="860" height="110" rx="16" fill="#0d0e12" fill-opacity="0.4" stroke="url(#preset-leak-border)" stroke-width="1.2" filter="url(#preset-drop-shadow)"/>
  
  <!-- Specular inner edge chamfer highlight -->
  <rect x="0.5" y="0.5" width="859" height="109" rx="15.5" fill="none" stroke="#ffffff" stroke-opacity="0.08" stroke-width="1"/>

  <!-- ==================== LAYER 2: HEADER ROWS ==================== -->
  
  <!-- Left Header Group: Waya logo & "CHAT PRESET" Label -->
  <g transform="translate(16, 14)">
    <image href="https://reduced-beige-7hamqau4r6.edgeone.app/a.png" x="0" y="0" width="16" height="16" filter="brightness(1.1)"/>
    <text x="22" y="12" font-family="'JetBrains Mono', 'Fira Code', monospace" font-weight="800" font-size="10" fill="#a5b4fc" letter-spacing="0.12em">CHAT PRESET</text>
  </g>

  <!-- Right Header Group: "CHECK ALL QUESTIONS" Button Capsule -->
  <g transform="translate(668, 8)">
    <!-- Capsule border and backdrop fill -->
    <rect width="176" height="26" rx="13" fill="rgba(255, 255, 255, 0.03)" stroke="rgba(255, 255, 255, 0.08)" stroke-width="1"/>
    
    <!-- 1:1 Vector Reconstructed lucide-circle-question-mark -->
    <g transform="translate(10, 6)" stroke="#818cf8" stroke-width="1.5" fill="none" stroke-linecap="round" stroke-linejoin="round">
      <circle cx="7" cy="7" r="6"/>
      <path d="M5.3 5.3a2 2 0 0 1 3.4 0c0 1.2-1.7 1.8-1.7 1.8"/>
      <line x1="7" y1="9.8" x2="7.01" y2="9.8"/>
    </g>

    <!-- Button label text -->
    <text x="96" y="17" font-family="'Inter', sans-serif" font-weight="700" font-size="9" fill="#cbd5e1" letter-spacing="0.04em" text-anchor="middle">CHECK ALL QUESTIONS</text>
  </g>

  <!-- Horizontal divider line separating headers from category pills (border-white/10) -->
  <line x1="0" y1="44" x2="860" y2="44" stroke="rgba(255, 255, 255, 0.08)" stroke-width="1"/>

  <!-- ==================== LAYER 3: CATEGORIES HORIZONTAL PILLS ROW ==================== -->
  
  <g transform="translate(16, 56)">
    
    <!-- PILL 1: Stocks to Buy -->
    <g transform="translate(0, 0)">
      <rect width="146" height="34" rx="17" fill="rgba(255, 255, 255, 0.02)" stroke="rgba(255, 255, 255, 0.05)" stroke-width="1"/>
      
      <!-- lucide-trending-up -->
      <g transform="translate(14, 9)" stroke="#94a3b8" stroke-width="1.5" fill="none" stroke-linecap="round" stroke-linejoin="round">
        <path d="M12 5h4v4"/>
        <path d="m16 5-6.5 6.5-3.5-3.5L2 13"/>
      </g>
      
      <text x="80" y="21" font-family="'Inter', sans-serif" font-weight="600" font-size="11.5" fill="#cbd5e1" text-anchor="middle">Stocks to Buy</text>
      
      <!-- lucide-chevron-down -->
      <path d="M122 15l3.5 3.5 3.5-3.5" stroke="#94a3b8" stroke-width="1.2" stroke-linecap="round" stroke-linejoin="round" fill="none"/>
    </g>

    <!-- PILL 2: Short selling -->
    <g transform="translate(156, 0)">
      <rect width="144" height="34" rx="17" fill="rgba(255, 255, 255, 0.02)" stroke="rgba(255, 255, 255, 0.05)" stroke-width="1"/>
      
      <!-- lucide-triangle-alert -->
      <g transform="translate(14, 9)" stroke="#94a3b8" stroke-width="1.5" fill="none" stroke-linecap="round" stroke-linejoin="round">
        <path d="m14.5 12-5.3-9.3a1.3 1.3 0 0 0-2.3 0L1.5 12a1.3 1.3 0 0 0 1.1 2h10.8a1.3 1.3 0 0 0 1.1-2z"/>
        <line x1="8" y1="6" x2="8" y2="9"/>
        <line x1="8" y1="11.5" x2="8.01" y2="11.5"/>
      </g>
      
      <text x="80" y="21" font-family="'Inter', sans-serif" font-weight="600" font-size="11.5" fill="#cbd5e1" text-anchor="middle">Short selling</text>
      
      <!-- lucide-chevron-down -->
      <path d="M120 15l3.5 3.5 3.5-3.5" stroke="#94a3b8" stroke-width="1.2" stroke-linecap="round" stroke-linejoin="round" fill="none"/>
    </g>

    <!-- PILL 3: Long term picks -->
    <g transform="translate(310, 0)">
      <rect width="154" height="34" rx="17" fill="rgba(255, 255, 255, 0.02)" stroke="rgba(255, 255, 255, 0.05)" stroke-width="1"/>
      
      <!-- lucide-sparkles -->
      <g transform="translate(12, 9)" stroke="#94a3b8" stroke-width="1.5" fill="none" stroke-linecap="round" stroke-linejoin="round">
        <path d="m7.3 1.8 1 3.7c.1.3.3.5.5.6l3.7 1a.6.6 0 0 1 0 1.3l-3.7 1a.8.8 0 0 0-.5.6l-1 3.7a.6.6 0 0 1-1.3 0l-1-3.7a.8.8 0 0 0-.5-.6l-3.7-1a.6.6 0 0 1 0-1.3l3.7-1a.8.8 0 0 0 .5-.6l1-3.7a.6.6 0 0 1 1.3 0z"/>
        <path d="M13.3 1.3v2.6"/>
        <path d="M14.6 2.6H12"/>
      </g>
      
      <text x="82" y="21" font-family="'Inter', sans-serif" font-weight="600" font-size="11.5" fill="#cbd5e1" text-anchor="middle">Long term picks</text>
      
      <!-- lucide-chevron-down -->
      <path d="M128 15l3.5 3.5 3.5-3.5" stroke="#94a3b8" stroke-width="1.2" stroke-linecap="round" stroke-linejoin="round" fill="none"/>
    </g>

    <!-- PILL 4: Track record (Active outline breathing glow simulation) -->
    <g transform="translate(474, 0)">
      <!-- Animated search pill borders -->
      <rect width="144" height="34" rx="17" fill="rgba(255, 255, 255, 0.02)" stroke="#818cf8" stroke-opacity="0.6" stroke-width="1.2"/>
      
      <!-- lucide-search -->
      <g transform="translate(14, 9)" stroke="#818cf8" stroke-width="1.5" fill="none" stroke-linecap="round" stroke-linejoin="round">
        <circle cx="6" cy="6" r="4.5"/>
        <line x1="9.5" y1="9.5" x2="13" y2="13"/>
      </g>
      
      <text x="80" y="21" font-family="'Inter', sans-serif" font-weight="600" font-size="11.5" fill="#cbd5e1" text-anchor="middle">Track record</text>
      
      <!-- lucide-chevron-down -->
      <path d="M120 15l3.5 3.5 3.5-3.5" stroke="#94a3b8" stroke-width="1.2" stroke-linecap="round" stroke-linejoin="round" fill="none"/>
    </g>

    <!-- PILL 5: About Waya -->
    <g transform="translate(628, 0)">
      <rect width="138" height="34" rx="17" fill="rgba(255, 255, 255, 0.02)" stroke="rgba(255, 255, 255, 0.05)" stroke-width="1"/>
      
      <!-- Miniature Waya Emblem icon representation -->
      <image href="https://reduced-beige-7hamqau4r6.edgeone.app/a.png" x="12" y="10" width="14" height="14"/>
      
      <text x="76" y="21" font-family="'Inter', sans-serif" font-weight="600" font-size="11.5" fill="#cbd5e1" text-anchor="middle">About Waya</text>
      
      <!-- lucide-chevron-down -->
      <path d="M114 15l3.5 3.5 3.5-3.5" stroke="#94a3b8" stroke-width="1.2" stroke-linecap="round" stroke-linejoin="round" fill="none"/>
    </g>

  </g>
</svg>
