<svg width="1600" height="1200" viewBox="0 0 1600 1200" fill="none" xmlns="http://www.w3.org/2000/svg">
  <!-- 
    ======================================================================
    WAYAX CHAT PRESET COMPONENT VARIANT MASTER BOARD (1600px x 1200px)
    Beautiful interactive state recreation in full Figma-native vector layers:
    1. Variant A: Default / Idle State
    2. Variant B: Closed State (Tab selected but dropdown collapsed)
    3. Variant C: Opened State (Tab selected and questions list expanded)
    ======================================================================
  -->

  <defs>
    <!-- Background premium dark caustics gradient -->
    <radialGradient id="board-bg" cx="50%" cy="50%" r="50%" fx="50%" fy="50%">
      <stop offset="0%" stop-color="#0a0c14"/>
      <stop offset="100%" stop-color="#050508"/>
    </radialGradient>

    <!-- Sub-surface refraction blurs -->
    <filter id="bg-refraction-blur" x="-20%" y="-20%" width="140%" height="140%">
      <feGaussianBlur stdDeviation="75"/>
    </filter>

    <linearGradient id="variant-glass-border" x1="0" y1="0" x2="600" y2="400" gradientUnits="userSpaceOnUse">
      <stop offset="0%" stop-color="#ffffff" stop-opacity="0.12"/>
      <stop offset="100%" stop-color="#ffffff" stop-opacity="0.02"/>
    </linearGradient>

    <!-- Drop shadows -->
    <filter id="glass-card-shadow" x="-5%" y="-5%" width="110%" height="110%">
      <feDropShadow dx="0" dy="16" stdDeviation="32" flood-color="#000000" flood-opacity="0.55"/>
    </filter>
  </defs>

  <!-- ==================== BACKGROUND ==================== -->
  <rect width="1600" height="1200" fill="url(#board-bg)"/>

  <!-- Background decorative dotted grid -->
  <g opacity="0.12">
    <circle cx="50" cy="50" r="1.5" fill="#ffffff" />
    <circle cx="150" cy="50" r="1.5" fill="#ffffff" />
    <circle cx="250" cy="50" r="1.5" fill="#ffffff" />
    <circle cx="350" cy="50" r="1.5" fill="#ffffff" />
    <circle cx="450" cy="50" r="1.5" fill="#ffffff" />
    <circle cx="550" cy="50" r="1.5" fill="#ffffff" />
    <circle cx="650" cy="50" r="1.5" fill="#ffffff" />
    <circle cx="750" cy="50" r="1.5" fill="#ffffff" />
    <circle cx="850" cy="50" r="1.5" fill="#ffffff" />
    <circle cx="950" cy="50" r="1.5" fill="#ffffff" />
    <circle cx="1050" cy="50" r="1.5" fill="#ffffff" />
    <circle cx="1150" cy="50" r="1.5" fill="#ffffff" />
    <circle cx="1250" cy="50" r="1.5" fill="#ffffff" />
    <circle cx="1350" cy="50" r="1.5" fill="#ffffff" />
    <circle cx="1450" cy="50" r="1.5" fill="#ffffff" />
    <circle cx="1550" cy="50" r="1.5" fill="#ffffff" />

    <circle cx="50" cy="200" r="1.5" fill="#ffffff" />
    <circle cx="150" cy="200" r="1.5" fill="#ffffff" />
    <circle cx="250" cy="200" r="1.5" fill="#ffffff" />
    <circle cx="350" cy="200" r="1.5" fill="#ffffff" />
    <circle cx="450" cy="200" r="1.5" fill="#ffffff" />
    <circle cx="550" cy="200" r="1.5" fill="#ffffff" />
    <circle cx="650" cy="200" r="1.5" fill="#ffffff" />
    <circle cx="750" cy="200" r="1.5" fill="#ffffff" />
    <circle cx="850" cy="200" r="1.5" fill="#ffffff" />
    <circle cx="950" cy="200" r="1.5" fill="#ffffff" />
    <circle cx="1050" cy="200" r="1.5" fill="#ffffff" />
    <circle cx="1150" cy="200" r="1.5" fill="#ffffff" />
    <circle cx="1250" cy="200" r="1.5" fill="#ffffff" />
    <circle cx="1350" cy="200" r="1.5" fill="#ffffff" />
    <circle cx="1450" cy="200" r="1.5" fill="#ffffff" />
    <circle cx="1550" cy="200" r="1.5" fill="#ffffff" />

    <circle cx="50" cy="400" r="1.5" fill="#ffffff" />
    <circle cx="150" cy="400" r="1.5" fill="#ffffff" />
    <circle cx="250" cy="400" r="1.5" fill="#ffffff" />
    <circle cx="350" cy="400" r="1.5" fill="#ffffff" />
    <circle cx="450" cy="400" r="1.5" fill="#ffffff" />
    <circle cx="550" cy="400" r="1.5" fill="#ffffff" />
    <circle cx="650" cy="400" r="1.5" fill="#ffffff" />
    <circle cx="750" cy="400" r="1.5" fill="#ffffff" />
    <circle cx="850" cy="400" r="1.5" fill="#ffffff" />
    <circle cx="950" cy="400" r="1.5" fill="#ffffff" />
    <circle cx="1050" cy="400" r="1.5" fill="#ffffff" />
    <circle cx="1150" cy="400" r="1.5" fill="#ffffff" />
    <circle cx="1250" cy="400" r="1.5" fill="#ffffff" />
    <circle cx="1350" cy="400" r="1.5" fill="#ffffff" />
    <circle cx="1450" cy="400" r="1.5" fill="#ffffff" />
    <circle cx="1550" cy="400" r="1.5" fill="#ffffff" />

    <circle cx="50" cy="600" r="1.5" fill="#ffffff" />
    <circle cx="150" cy="600" r="1.5" fill="#ffffff" />
    <circle cx="250" cy="600" r="1.5" fill="#ffffff" />
    <circle cx="350" cy="600" r="1.5" fill="#ffffff" />
    <circle cx="450" cy="600" r="1.5" fill="#ffffff" />
    <circle cx="550" cy="600" r="1.5" fill="#ffffff" />
    <circle cx="650" cy="600" r="1.5" fill="#ffffff" />
    <circle cx="750" cy="600" r="1.5" fill="#ffffff" />
    <circle cx="850" cy="600" r="1.5" fill="#ffffff" />
    <circle cx="950" cy="600" r="1.5" fill="#ffffff" />
    <circle cx="1050" cy="600" r="1.5" fill="#ffffff" />
    <circle cx="1150" cy="600" r="1.5" fill="#ffffff" />
    <circle cx="1250" cy="600" r="1.5" fill="#ffffff" />
    <circle cx="1350" cy="600" r="1.5" fill="#ffffff" />
    <circle cx="1450" cy="600" r="1.5" fill="#ffffff" />
    <circle cx="1550" cy="600" r="1.5" fill="#ffffff" />

    <circle cx="50" cy="800" r="1.5" fill="#ffffff" />
    <circle cx="150" cy="800" r="1.5" fill="#ffffff" />
    <circle cx="250" cy="800" r="1.5" fill="#ffffff" />
    <circle cx="350" cy="800" r="1.5" fill="#ffffff" />
    <circle cx="450" cy="800" r="1.5" fill="#ffffff" />
    <circle cx="550" cy="800" r="1.5" fill="#ffffff" />
    <circle cx="650" cy="800" r="1.5" fill="#ffffff" />
    <circle cx="750" cy="800" r="1.5" fill="#ffffff" />
    <circle cx="850" cy="800" r="1.5" fill="#ffffff" />
    <circle cx="950" cy="800" r="1.5" fill="#ffffff" />
    <circle cx="1050" cy="800" r="1.5" fill="#ffffff" />
    <circle cx="1150" cy="800" r="1.5" fill="#ffffff" />
    <circle cx="1250" cy="800" r="1.5" fill="#ffffff" />
    <circle cx="1350" cy="800" r="1.5" fill="#ffffff" />
    <circle cx="1450" cy="800" r="1.5" fill="#ffffff" />
    <circle cx="1550" cy="800" r="1.5" fill="#ffffff" />
  </g>

  <!-- Ambient glowing cyan/blue sub-surface refraction dots -->
  <circle cx="400" cy="300" r="140" fill="#77f2e4" fill-opacity="0.08" filter="url(#bg-refraction-blur)"/>
  <circle cx="1200" cy="600" r="180" fill="#6bb6f3" fill-opacity="0.06" filter="url(#bg-refraction-blur)"/>

  <!-- ==================== BOARD TITLE ==================== -->
  <g transform="translate(60, 60)">
    <text x="0" y="0" font-family="'Sora', sans-serif" font-weight="800" font-size="28" fill="#ffffff" letter-spacing="-0.02em">WayaX Chat Preset Component</text>
    <text x="0" y="24" font-family="'JetBrains Mono', monospace" font-weight="700" font-size="11" fill="#6366f1" letter-spacing="0.05em">SPECIFICATION ASSEMBLY BOARD &amp; COMPONENT VARIANT CODES</text>
  </g>

  <!-- ==================== 1. VARIANT A: DEFAULT STATE (Y = 160, X = 60) ==================== -->
  <g transform="translate(60, 160)">
    <!-- Monospace code label -->
    <rect width="180" height="24" rx="6" fill="#12131a" stroke="rgba(255,255,255,0.06)" stroke-width="1"/>
    <text x="90" y="16" font-family="'JetBrains Mono', monospace" font-weight="700" font-size="9" fill="#818cf8" text-anchor="middle">VARIANT A: DEFAULT / IDLE</text>

    <!-- Component Outer panel (640px x 110px) -->
    <g transform="translate(0, 40)" filter="url(#glass-card-shadow)">
      <rect width="640" height="110" rx="16" fill="#0d0e12" fill-opacity="0.6" stroke="url(#variant-glass-border)" stroke-width="1.2"/>
      <rect x="0.5" y="0.5" width="639" height="109" rx="15.5" fill="none" stroke="#ffffff" stroke-opacity="0.04" stroke-width="1"/>

      <!-- Presets Header -->
      <g transform="translate(16, 16)">
        <image href="https://reduced-beige-7hamqau4r6.edgeone.app/a.png" x="0" y="0" width="16" height="16" filter="brightness(1.15)"/>
        <text x="24" y="12" font-family="'JetBrains Mono', monospace" font-weight="800" font-size="10" fill="#a5b4fc">CHAT PRESET</text>

        <!-- Toggle Check Questions Button (Unchecked/Normal) -->
        <g transform="translate(460, -4)">
          <rect width="144" height="24" rx="12" fill="rgba(255, 255, 255, 0.03)" stroke="rgba(255,255,255,0.08)" stroke-width="1"/>
          <!-- Question icon -->
          <circle cx="16" cy="12" r="5" stroke="#818cf8" stroke-width="1.2" fill="none"/>
          <text x="16" y="15" font-family="'Inter', sans-serif" font-weight="800" font-size="7" fill="#818cf8" text-anchor="middle">?</text>
          <text x="76" y="15" font-family="'Inter', sans-serif" font-weight="800" font-size="8.5" fill="#cbd5e1" text-anchor="middle">CHECK ALL QUESTIONS</text>
        </g>
      </g>

      <line x1="16" y1="52" x2="624" y2="52" stroke="rgba(255, 255, 255, 0.06)" stroke-width="1"/>

      <!-- Tab Categories Switcher (Y = 64) -->
      <g transform="translate(16, 66)">
        <!-- Tab 1: Stocks to Buy (Normal) -->
        <g transform="translate(0, 0)">
          <rect width="100" height="24" rx="12" fill="rgba(255,255,255,0.02)" stroke="rgba(255,255,255,0.05)" stroke-width="1"/>
          <text x="50" y="15" font-family="'Inter', sans-serif" font-weight="700" font-size="9" fill="#94a3b8" text-anchor="middle">Stocks to Buy</text>
        </g>

        <!-- Tab 2: Short Selling -->
        <g transform="translate(108, 0)">
          <rect width="90" height="24" rx="12" fill="rgba(255,255,255,0.02)" stroke="rgba(255,255,255,0.05)" stroke-width="1"/>
          <text x="45" y="15" font-family="'Inter', sans-serif" font-weight="700" font-size="9" fill="#94a3b8" text-anchor="middle">Short Selling</text>
        </g>

        <!-- Tab 3: Long-Term Picks -->
        <g transform="translate(206, 0)">
          <rect width="105" height="24" rx="12" fill="rgba(255,255,255,0.02)" stroke="rgba(255,255,255,0.05)" stroke-width="1"/>
          <text x="52.5" y="15" font-family="'Inter', sans-serif" font-weight="700" font-size="9" fill="#94a3b8" text-anchor="middle">Long-Term Picks</text>
        </g>

        <!-- Tab 4: Track Record -->
        <g transform="translate(319, 0)">
          <rect width="95" height="24" rx="12" fill="rgba(255,255,255,0.02)" stroke="rgba(255,255,255,0.05)" stroke-width="1"/>
          <text x="47.5" y="15" font-family="'Inter', sans-serif" font-weight="700" font-size="9" fill="#94a3b8" text-anchor="middle">Track Record</text>
        </g>

        <!-- Tab 5: About Waya -->
        <g transform="translate(422, 0)">
          <rect width="85" height="24" rx="12" fill="rgba(255,255,255,0.02)" stroke="rgba(255,255,255,0.05)" stroke-width="1"/>
          <text x="42.5" y="15" font-family="'Inter', sans-serif" font-weight="700" font-size="9" fill="#94a3b8" text-anchor="middle">About Waya</text>
        </g>
      </g>
    </g>
  </g>

  <!-- ==================== 2. VARIANT B: CLOSED STATE WITH TAB HIGHLIGHTED (Y = 160, X = 780) ==================== -->
  <g transform="translate(780, 160)">
    <rect width="210" height="24" rx="6" fill="#12131a" stroke="rgba(255,255,255,0.06)" stroke-width="1"/>
    <text x="105" y="16" font-family="'JetBrains Mono', monospace" font-weight="700" font-size="9" fill="#818cf8" text-anchor="middle">VARIANT B: TAB ACTIVE / CLOSED</text>

    <!-- Component Outer Panel -->
    <g transform="translate(0, 40)" filter="url(#glass-card-shadow)">
      <rect width="720" height="110" rx="16" fill="#0d0e12" fill-opacity="0.6" stroke="url(#variant-glass-border)" stroke-width="1.2"/>
      <rect x="0.5" y="0.5" width="719" height="109" rx="15.5" fill="none" stroke="#ffffff" stroke-opacity="0.04" stroke-width="1"/>

      <!-- Presets Header -->
      <g transform="translate(16, 16)">
        <image href="https://reduced-beige-7hamqau4r6.edgeone.app/a.png" x="0" y="0" width="16" height="16" filter="brightness(1.15)"/>
        <text x="24" y="12" font-family="'JetBrains Mono', monospace" font-weight="800" font-size="10" fill="#a5b4fc">CHAT PRESET</text>

        <!-- Toggle Check Questions Button (Checked / Checked state) -->
        <g transform="translate(540, -4)">
          <rect width="144" height="24" rx="12" fill="rgba(99, 102, 241, 0.15)" stroke="rgba(99, 102, 241, 0.3)" stroke-width="1"/>
          <!-- Question icon in Indigo -->
          <circle cx="16" cy="12" r="5" stroke="#a5b4fc" stroke-width="1.2" fill="none"/>
          <text x="16" y="15" font-family="'Inter', sans-serif" font-weight="800" font-size="7" fill="#a5b4fc" text-anchor="middle">?</text>
          <text x="76" y="15" font-family="'Inter', sans-serif" font-weight="800" font-size="8.5" fill="#a5b4fc" text-anchor="middle">CHECK ALL QUESTIONS</text>
        </g>
      </g>

      <line x1="16" y1="52" x2="704" y2="52" stroke="rgba(255, 255, 255, 0.06)" stroke-width="1"/>

      <!-- Tab Categories Switcher (Y = 64) with high-light tab active -->
      <g transform="translate(16, 66)">
        <!-- Tab 1: Stocks to Buy (Active) -->
        <g transform="translate(0, 0)">
          <rect width="105" height="24" rx="12" fill="rgba(255,255,255,0.15)" stroke="rgba(255,255,255,0.25)" stroke-width="1"/>
          <text x="52.5" y="15" font-family="'Inter', sans-serif" font-weight="700" font-size="9" fill="#ffffff" text-anchor="middle">Stocks to Buy</text>
        </g>

        <!-- Tab 2: Short Selling -->
        <g transform="translate(113, 0)">
          <rect width="90" height="24" rx="12" fill="rgba(255,255,255,0.02)" stroke="rgba(255,255,255,0.05)" stroke-width="1"/>
          <text x="45" y="15" font-family="'Inter', sans-serif" font-weight="700" font-size="9" fill="#94a3b8" text-anchor="middle">Short Selling</text>
        </g>

        <!-- Tab 3: Long-Term Picks -->
        <g transform="translate(211, 0)">
          <rect width="105" height="24" rx="12" fill="rgba(255,255,255,0.02)" stroke="rgba(255,255,255,0.05)" stroke-width="1"/>
          <text x="52.5" y="15" font-family="'Inter', sans-serif" font-weight="700" font-size="9" fill="#94a3b8" text-anchor="middle">Long-Term Picks</text>
        </g>

        <!-- Tab 4: Track Record -->
        <g transform="translate(324, 0)">
          <rect width="95" height="24" rx="12" fill="rgba(255,255,255,0.02)" stroke="rgba(255,255,255,0.05)" stroke-width="1"/>
          <text x="47.5" y="15" font-family="'Inter', sans-serif" font-weight="700" font-size="9" fill="#94a3b8" text-anchor="middle">Track Record</text>
        </g>
      </g>
    </g>
  </g>

  <!-- ==================== 3. VARIANT C: OPENED / EXPANDED QUESTIONS STATE (Y = 400, X = 60) ==================== -->
  <g transform="translate(60, 400)">
    <rect width="210" height="24" rx="6" fill="#12131a" stroke="rgba(255,255,255,0.06)" stroke-width="1"/>
    <text x="105" y="16" font-family="'JetBrains Mono', monospace" font-weight="700" font-size="9" fill="#818cf8" text-anchor="middle">VARIANT C: EXPANDED OPENED STATE</text>

    <!-- Component Outer Panel (920px x 680px) -->
    <g transform="translate(0, 40)" filter="url(#glass-card-shadow)">
      <rect width="1440" height="660" rx="20" fill="#0d0e12" fill-opacity="0.65" stroke="url(#variant-glass-border)" stroke-width="1.2"/>
      <rect x="0.5" y="0.5" width="1439" height="659" rx="19.5" fill="none" stroke="#ffffff" stroke-opacity="0.04" stroke-width="1"/>

      <!-- Presets Header -->
      <g transform="translate(24, 24)">
        <image href="https://reduced-beige-7hamqau4r6.edgeone.app/a.png" x="0" y="0" width="18" height="18" filter="brightness(1.15)"/>
        <text x="28" y="14" font-family="'JetBrains Mono', monospace" font-weight="800" font-size="11" fill="#a5b4fc" letter-spacing="0.05em">CHAT PRESET</text>

        <!-- Toggle Check Questions Button (Checked / Checked state) -->
        <g transform="translate(1240, -4)">
          <rect width="156" height="26" rx="13" fill="rgba(99, 102, 241, 0.18)" stroke="rgba(99, 102, 241, 0.35)" stroke-width="1"/>
          <circle cx="18" cy="13" r="5" stroke="#a5b4fc" stroke-width="1.2" fill="none"/>
          <text x="18" y="16" font-family="'Inter', sans-serif" font-weight="800" font-size="7" fill="#a5b4fc" text-anchor="middle">?</text>
          <text x="84" y="16.5" font-family="'Inter', sans-serif" font-weight="800" font-size="9" fill="#a5b4fc" text-anchor="middle">CHECK ALL QUESTIONS</text>
        </g>
      </g>

      <line x1="24" y1="68" x2="1416" y2="68" stroke="rgba(255, 255, 255, 0.08)" stroke-width="1"/>

      <!-- Tab Categories Switcher (Y = 88) -->
      <g transform="translate(24, 88)">
        <!-- Tab 1: Stocks to Buy (Active) -->
        <g transform="translate(0, 0)">
          <rect width="115" height="28" rx="14" fill="rgba(255,255,255,0.15)" stroke="rgba(255,255,255,0.25)" stroke-width="1"/>
          <text x="57.5" y="17.5" font-family="'Inter', sans-serif" font-weight="700" font-size="10.5" fill="#ffffff" text-anchor="middle">Stocks to Buy</text>
        </g>

        <!-- Tab 2: Short Selling -->
        <g transform="translate(125, 0)">
          <rect width="100" height="28" rx="14" fill="rgba(255,255,255,0.02)" stroke="rgba(255,255,255,0.05)" stroke-width="1"/>
          <text x="50" y="17.5" font-family="'Inter', sans-serif" font-weight="700" font-size="10.5" fill="#94a3b8" text-anchor="middle">Short Selling</text>
        </g>

        <!-- Tab 3: Long-Term Picks -->
        <g transform="translate(235, 0)">
          <rect width="120" height="28" rx="14" fill="rgba(255,255,255,0.02)" stroke="rgba(255,255,255,0.05)" stroke-width="1"/>
          <text x="60" y="17.5" font-family="'Inter', sans-serif" font-weight="700" font-size="10.5" fill="#94a3b8" text-anchor="middle">Long-Term Picks</text>
        </g>

        <!-- Tab 4: Track Record -->
        <g transform="translate(365, 0)">
          <rect width="110" height="28" rx="14" fill="rgba(255,255,255,0.02)" stroke="rgba(255,255,255,0.05)" stroke-width="1"/>
          <text x="55" y="17.5" font-family="'Inter', sans-serif" font-weight="700" font-size="10.5" fill="#94a3b8" text-anchor="middle">Track Record</text>
        </g>
      </g>

      <line x1="24" y1="136" x2="1416" y2="136" stroke="rgba(255, 255, 255, 0.08)" stroke-width="1"/>

      <!-- Expanded Preset Questions Grid (2 columns stack) -->
      <g transform="translate(24, 156)">
        <text x="0" y="16" font-family="'JetBrains Mono', monospace" font-weight="700" font-size="9.5" fill="#6366f1" letter-spacing="0.05em">SELECT A QUESTION TO DISPATCH IMMEDIATELY:</text>

        <!-- COLUMN 1 (Left Column) -->
        <g transform="translate(0, 36)">
          <!-- Question 1 -->
          <g transform="translate(0, 0)">
            <rect width="660" height="42" rx="10" fill="rgba(255,255,255,0.015)" stroke="rgba(255,255,255,0.04)" stroke-width="1"/>
            <text x="16" y="25" font-family="'Inter', sans-serif" font-weight="500" font-size="12" fill="#e2e8f0">"Give me list of stocks I can buy"</text>
            <!-- arrow icon -->
            <path d="M624 16 L632 21 L624 26" stroke="#6366f1" stroke-width="1.5" fill="none"/>
          </g>

          <!-- Question 2 -->
          <g transform="translate(0, 54)">
            <rect width="660" height="42" rx="10" fill="rgba(255,255,255,0.015)" stroke="rgba(255,255,255,0.04)" stroke-width="1"/>
            <text x="16" y="25" font-family="'Inter', sans-serif" font-weight="500" font-size="12" fill="#e2e8f0">"Give me list of stocks that can give 10% returns in 30 days"</text>
            <path d="M624 16 L632 21 L624 26" stroke="#6366f1" stroke-width="1.5" fill="none"/>
          </g>

          <!-- Question 3 -->
          <g transform="translate(0, 108)">
            <rect width="660" height="42" rx="10" fill="rgba(255,255,255,0.015)" stroke="rgba(255,255,255,0.04)" stroke-width="1"/>
            <text x="16" y="25" font-family="'Inter', sans-serif" font-weight="500" font-size="12" fill="#e2e8f0">"Give me 3 stocks in IT sector I can buy today"</text>
            <path d="M624 16 L632 21 L624 26" stroke="#6366f1" stroke-width="1.5" fill="none"/>
          </g>

          <!-- Question 4 -->
          <g transform="translate(0, 162)">
            <rect width="660" height="42" rx="10" fill="rgba(255,255,255,0.015)" stroke="rgba(255,255,255,0.04)" stroke-width="1"/>
            <text x="16" y="25" font-family="'Inter', sans-serif" font-weight="500" font-size="12" fill="#e2e8f0">"Show me Pharma stocks currently in the BUY zone"</text>
            <path d="M624 16 L632 21 L624 26" stroke="#6366f1" stroke-width="1.5" fill="none"/>
          </g>

          <!-- Question 5 -->
          <g transform="translate(0, 216)">
            <rect width="660" height="42" rx="10" fill="rgba(255,255,255,0.015)" stroke="rgba(255,255,255,0.04)" stroke-width="1"/>
            <text x="16" y="25" font-family="'Inter', sans-serif" font-weight="500" font-size="12" fill="#e2e8f0">"Which Capital Goods stocks are in the BUY zone right now?"</text>
            <path d="M624 16 L632 21 L624 26" stroke="#6366f1" stroke-width="1.5" fill="none"/>
          </g>
        </g>

        <!-- COLUMN 2 (Right Column) -->
        <g transform="translate(700, 36)">
          <!-- Question 6 -->
          <g transform="translate(0, 0)">
            <rect width="660" height="42" rx="10" fill="rgba(255,255,255,0.015)" stroke="rgba(255,255,255,0.04)" stroke-width="1"/>
            <text x="16" y="25" font-family="'Inter', sans-serif" font-weight="500" font-size="12" fill="#e2e8f0">"Give me 2 Chemicals stocks to buy this week"</text>
            <path d="M624 16 L632 21 L624 26" stroke="#6366f1" stroke-width="1.5" fill="none"/>
          </g>

          <!-- Question 7 -->
          <g transform="translate(0, 54)">
            <rect width="660" height="42" rx="10" fill="rgba(255,255,255,0.015)" stroke="rgba(255,255,255,0.04)" stroke-width="1"/>
            <text x="16" y="25" font-family="'Inter', sans-serif" font-weight="500" font-size="12" fill="#e2e8f0">"Show me FMCG stocks in the BUY zone"</text>
            <path d="M624 16 L632 21 L624 26" stroke="#6366f1" stroke-width="1.5" fill="none"/>
          </g>

          <!-- Question 8 -->
          <g transform="translate(0, 108)">
            <rect width="660" height="42" rx="10" fill="rgba(255,255,255,0.015)" stroke="rgba(255,255,255,0.04)" stroke-width="1"/>
            <text x="16" y="25" font-family="'Inter', sans-serif" font-weight="500" font-size="12" fill="#e2e8f0">"Which Metals stocks can I buy right now?"</text>
            <path d="M624 16 L632 21 L624 26" stroke="#6366f1" stroke-width="1.5" fill="none"/>
          </g>

          <!-- Question 9 -->
          <g transform="translate(0, 162)">
            <rect width="660" height="42" rx="10" fill="rgba(255,255,255,0.015)" stroke="rgba(255,255,255,0.04)" stroke-width="1"/>
            <text x="16" y="25" font-family="'Inter', sans-serif" font-weight="500" font-size="12" fill="#e2e8f0">"Give me a diversified portfolio of 10 stocks for 1 year"</text>
            <path d="M624 16 L632 21 L624 26" stroke="#6366f1" stroke-width="1.5" fill="none"/>
          </g>

          <!-- Question 10 -->
          <g transform="translate(0, 216)">
            <rect width="660" height="42" rx="10" fill="rgba(255,255,255,0.015)" stroke="rgba(255,255,255,0.04)" stroke-width="1"/>
            <text x="16" y="25" font-family="'Inter', sans-serif" font-weight="500" font-size="12" fill="#e2e8f0">"Give me 5 Small Cap stocks with high growth potential"</text>
            <path d="M624 16 L632 21 L624 26" stroke="#6366f1" stroke-width="1.5" fill="none"/>
          </g>
        </g>
      </g>

      <!-- Legal footer inside expanded card (Y = 470) -->
      <g transform="translate(24, 608)">
        <text x="0" y="12" font-family="'JetBrains Mono', monospace" font-weight="600" font-size="9" fill="#475569">
          * Dispatching preset query triggers instant analysis query against BSE/NSE indexes under SEBI RA protocol INH00010876
        </text>
      </g>
    </g>
  </g>
</svg>
