<svg width="1800" height="1400" viewBox="0 0 1800 1400" fill="none" xmlns="http://www.w3.org/2000/svg">
  <!-- 
    ======================================================================
    WAYAX MASTER SIDEBAR PANEL ELEMENTS BREAKDOWN BOARD (1800px x 1400px)
    Premium Figma-native vector board showing the Left Sidebar in full assembly
    along side an exploded element-by-element breakdown:
    - Branding Header Assembly
    - Search Bar & New Chat Capsule
    - Detailed Memory & Risk Profile settings
    - Active vs Normal Chat History items
    ======================================================================
  -->

  <defs>
    <!-- Dark elegant dashboard background -->
    <radialGradient id="dashboard-bg" cx="50%" cy="50%" r="50%" fx="50%" fy="50%">
      <stop offset="0%" stop-color="#0a0c13"/>
      <stop offset="100%" stop-color="#050508"/>
    </radialGradient>

    <!-- Sub-surface refraction blurs -->
    <filter id="neon-glow-blur" x="-20%" y="-20%" width="140%" height="140%">
      <feGaussianBlur stdDeviation="90"/>
    </filter>

    <!-- Glass specular borders -->
    <linearGradient id="board-glass-border" x1="0" y1="0" x2="400" y2="1200" gradientUnits="userSpaceOnUse">
      <stop offset="0%" stop-color="#ffffff" stop-opacity="0.12"/>
      <stop offset="50%" stop-color="#ffffff" stop-opacity="0.04"/>
      <stop offset="100%" stop-color="#ffffff" stop-opacity="0.01"/>
    </linearGradient>

    <linearGradient id="active-chat-highlight" x1="0" y1="0" x2="1" y2="0">
      <stop offset="0%" stop-color="#818cf8" stop-opacity="0.15"/>
      <stop offset="100%" stop-color="#818cf8" stop-opacity="0.02"/>
    </linearGradient>

    <!-- UI shadow filters -->
    <filter id="dashboard-card-shadow" x="-5%" y="-5%" width="110%" height="110%">
      <feDropShadow dx="0" dy="16" stdDeviation="36" flood-color="#000000" flood-opacity="0.65"/>
    </filter>
  </defs>

  <!-- ==================== BACKGROUND ==================== -->
  <rect width="1800" height="1400" fill="url(#dashboard-bg)"/>

  <!-- Sub-surface premium lights -->
  <circle cx="280" cy="700" r="220" fill="#77f2e4" fill-opacity="0.06" filter="url(#neon-glow-blur)"/>
  <circle cx="1100" cy="500" r="280" fill="#6bb6f3" fill-opacity="0.05" filter="url(#neon-glow-blur)"/>

  <!-- Dotted canvas grid -->
  <g opacity="0.1">
    <circle cx="100" cy="100" r="1.5" fill="#ffffff"/>
    <circle cx="300" cy="100" r="1.5" fill="#ffffff"/>
    <circle cx="500" cy="100" r="1.5" fill="#ffffff"/>
    <circle cx="700" cy="100" r="1.5" fill="#ffffff"/>
    <circle cx="900" cy="100" r="1.5" fill="#ffffff"/>
    <circle cx="1100" cy="100" r="1.5" fill="#ffffff"/>
    <circle cx="1300" cy="100" r="1.5" fill="#ffffff"/>
    <circle cx="1500" cy="100" r="1.5" fill="#ffffff"/>
    <circle cx="1700" cy="100" r="1.5" fill="#ffffff"/>

    <circle cx="100" cy="300" r="1.5" fill="#ffffff"/>
    <circle cx="300" cy="300" r="1.5" fill="#ffffff"/>
    <circle cx="500" cy="300" r="1.5" fill="#ffffff"/>
    <circle cx="700" cy="300" r="1.5" fill="#ffffff"/>
    <circle cx="900" cy="300" r="1.5" fill="#ffffff"/>
    <circle cx="1100" cy="300" r="1.5" fill="#ffffff"/>
    <circle cx="1300" cy="300" r="1.5" fill="#ffffff"/>
    <circle cx="1500" cy="300" r="1.5" fill="#ffffff"/>
    <circle cx="1700" cy="300" r="1.5" fill="#ffffff"/>

    <circle cx="100" cy="600" r="1.5" fill="#ffffff"/>
    <circle cx="300" cy="600" r="1.5" fill="#ffffff"/>
    <circle cx="500" cy="600" r="1.5" fill="#ffffff"/>
    <circle cx="700" cy="600" r="1.5" fill="#ffffff"/>
    <circle cx="900" cy="600" r="1.5" fill="#ffffff"/>
    <circle cx="1100" cy="600" r="1.5" fill="#ffffff"/>
    <circle cx="1300" cy="600" r="1.5" fill="#ffffff"/>
    <circle cx="1500" cy="600" r="1.5" fill="#ffffff"/>
    <circle cx="1700" cy="600" r="1.5" fill="#ffffff"/>

    <circle cx="100" cy="900" r="1.5" fill="#ffffff"/>
    <circle cx="300" cy="900" r="1.5" fill="#ffffff"/>
    <circle cx="500" cy="900" r="1.5" fill="#ffffff"/>
    <circle cx="700" cy="900" r="1.5" fill="#ffffff"/>
    <circle cx="900" cy="900" r="1.5" fill="#ffffff"/>
    <circle cx="1100" cy="900" r="1.5" fill="#ffffff"/>
    <circle cx="1300" cy="900" r="1.5" fill="#ffffff"/>
    <circle cx="1500" cy="900" r="1.5" fill="#ffffff"/>
    <circle cx="1700" cy="900" r="1.5" fill="#ffffff"/>

    <circle cx="100" cy="1200" r="1.5" fill="#ffffff"/>
    <circle cx="300" cy="1200" r="1.5" fill="#ffffff"/>
    <circle cx="500" cy="1200" r="1.5" fill="#ffffff"/>
    <circle cx="700" cy="1200" r="1.5" fill="#ffffff"/>
    <circle cx="900" cy="1200" r="1.5" fill="#ffffff"/>
    <circle cx="1100" cy="1200" r="1.5" fill="#ffffff"/>
    <circle cx="1300" cy="1200" r="1.5" fill="#ffffff"/>
    <circle cx="1500" cy="1200" r="1.5" fill="#ffffff"/>
    <circle cx="1700" cy="1200" r="1.5" fill="#ffffff"/>
  </g>

  <!-- ==================== BOARD HEADER ==================== -->
  <g transform="translate(80, 80)">
    <text x="0" y="0" font-family="'Sora', sans-serif" font-weight="800" font-size="30" fill="#ffffff" letter-spacing="-0.02em">Left Sidebar Panel Breakdown</text>
    <text x="0" y="26" font-family="'JetBrains Mono', monospace" font-weight="700" font-size="11" fill="#77f2e4" letter-spacing="0.05em">ATOMIC MODULES &amp; INTERACTIVE STATE SPECIFICATIONS</text>
  </g>

  <!-- ==================== 1. FULL ASSEMBLY SIDEBAR (X = 80, Y = 180) ==================== -->
  <g transform="translate(80, 180)">
    <!-- Exploded Section Monospace Label -->
    <rect width="210" height="26" rx="6" fill="#0d111a" stroke="rgba(255,255,255,0.06)" stroke-width="1"/>
    <text x="105" y="17" font-family="'JetBrains Mono', monospace" font-weight="700" font-size="9.5" fill="#77f2e4" text-anchor="middle">COMPLETE SIDEBAR ASSEMBLY</text>

    <g transform="translate(0, 46)" filter="url(#dashboard-card-shadow)">
      <!-- Sidebar Glass boundary (280px x 940px) -->
      <rect width="280" height="940" rx="20" fill="#111318" fill-opacity="0.88" stroke="url(#board-glass-border)" stroke-width="1.2"/>
      <rect x="0.5" y="0.5" width="279" height="939" rx="19.5" fill="none" stroke="#ffffff" stroke-opacity="0.04" stroke-width="1"/>

      <!-- A. Brand Header module -->
      <g transform="translate(16, 16)">
        <rect width="32" height="32" rx="8" fill="#0d121d" stroke="rgba(255,255,255,0.05)" stroke-width="1"/>
        <image href="https://reduced-beige-7hamqau4r6.edgeone.app/a.png" x="6" y="6" width="20" height="20"/>
        <text x="40" y="20" font-family="'Inter', sans-serif" font-weight="850" font-size="14.5" fill="#ffffff" letter-spacing="-0.02em">WayaX</text>
        
        <!-- Toggle button on right -->
        <g transform="translate(216, 4)">
          <rect width="24" height="24" rx="6" fill="rgba(255,255,255,0.02)" stroke="rgba(255,255,255,0.05)" stroke-width="0.8"/>
          <!-- panelleft icon lines -->
          <rect x="5" y="5" width="14" height="14" rx="2" fill="none" stroke="#64748b" stroke-width="1.2"/>
          <line x1="9" y1="5" x2="9" y2="19" stroke="#64748b" stroke-width="1.2"/>
        </g>
      </g>

      <line x1="0" y1="64" x2="280" y2="64" stroke="rgba(255, 255, 255, 0.05)" stroke-width="1"/>

      <!-- B. Search & New Chat Capsule -->
      <g transform="translate(14, 78)">
        <!-- New chat button (Y = 0) -->
        <rect width="252" height="36" rx="10" fill="rgba(255,255,255,0.03)" stroke="rgba(255,255,255,0.08)" stroke-width="1"/>
        <path d="M120 18 L132 18 M126 12 L126 24" stroke="#77f2e4" stroke-width="1.8"/>
        <text x="142" y="22" font-family="'Inter', sans-serif" font-weight="700" font-size="11.5" fill="#77f2e4">New Chat</text>

        <!-- Search box (Y = 46) -->
        <g transform="translate(0, 46)">
          <rect width="252" height="34" rx="8" fill="rgba(255,255,255,0.015)" stroke="rgba(255,255,255,0.04)" stroke-width="1"/>
          <!-- search lens icon -->
          <circle cx="20" cy="17" r="4" stroke="#475569" stroke-width="1.2" fill="none"/>
          <line x1="23" y1="20" x2="27" y2="24" stroke="#475569" stroke-width="1.2"/>
          <text x="36" y="21" font-family="'Inter', sans-serif" font-weight="500" font-size="11" fill="#475569">Search history...</text>
        </g>
      </g>

      <!-- C. Scrollable Chat History list (Y = 176 to 520) -->
      <g transform="translate(14, 176)">
        <text x="4" y="0" font-family="'JetBrains Mono', monospace" font-weight="700" font-size="8.5" fill="#475569" letter-spacing="0.05em">PAST CONVERSATIONS</text>

        <!-- Active Chat Item (Y = 12) -->
        <g transform="translate(0, 12)">
          <rect width="252" height="38" rx="8" fill="url(#active-chat-highlight)" stroke="rgba(129, 140, 248, 0.15)" stroke-width="1"/>
          <rect x="0.5" y="0.5" width="251" height="37" rx="7.5" fill="none" stroke="#818cf8" stroke-opacity="0.12" stroke-width="1"/>
          <!-- Candlestick chart icon -->
          <rect x="12" y="11" width="3" height="16" fill="#818cf8"/>
          <rect x="18" y="15" width="3" height="10" fill="#818cf8"/>
          <text x="32" y="23" font-family="'Inter', sans-serif" font-weight="700" font-size="11" fill="#ffffff">IT Sector picks 30D</text>
          
          <!-- Trash bin icon -->
          <rect x="224" y="13" width="12" height="12" rx="1.5" fill="none" stroke="#64748b" stroke-width="1"/>
          <line x1="222" y1="13" x2="238" y2="13" stroke="#64748b" stroke-width="1"/>
        </g>

        <!-- Normal Chat Item 2 (Y = 56) -->
        <g transform="translate(0, 56)">
          <rect width="252" height="38" rx="8" fill="rgba(255,255,255,0.01)" stroke="rgba(255,255,255,0.03)" stroke-width="1"/>
          <rect x="12" y="11" width="3" height="16" fill="#475569"/>
          <rect x="18" y="15" width="3" height="10" fill="#475569"/>
          <text x="32" y="23" font-family="'Inter', sans-serif" font-weight="600" font-size="11" fill="#94a3b8">SEBI Buy triggers Gokul</text>
        </g>

        <!-- Normal Chat Item 3 (Y = 100) -->
        <g transform="translate(0, 100)">
          <rect width="252" height="38" rx="8" fill="rgba(255,255,255,0.01)" stroke="rgba(255,255,255,0.03)" stroke-width="1"/>
          <rect x="12" y="11" width="3" height="16" fill="#475569"/>
          <rect x="18" y="15" width="3" height="10" fill="#475569"/>
          <text x="32" y="23" font-family="'Inter', sans-serif" font-weight="600" font-size="11" fill="#94a3b8">Moderate Risk Portfolio</text>
        </g>
      </g>

      <!-- D. Bot Memory Capsule (Y = 520 to 900) -->
      <line x1="16" y1="520" x2="264" y2="520" stroke="rgba(255, 255, 255, 0.05)" stroke-width="1"/>
      <g transform="translate(14, 536)">
        <text x="4" y="0" font-family="'JetBrains Mono', monospace" font-weight="700" font-size="8.5" fill="#64748b" letter-spacing="0.05em">ADVISORY MEMORY</text>

        <!-- Profile Detail Panel -->
        <g transform="translate(0, 16)">
          <rect width="252" height="240" rx="12" fill="#090a0d" fill-opacity="0.6" stroke="rgba(255,255,255,0.04)" stroke-width="1"/>
          
          <!-- Profile indicator header -->
          <g transform="translate(12, 12)">
            <circle cx="10" cy="10" r="10" fill="rgba(129, 140, 248, 0.1)"/>
            <!-- User human icon shape -->
            <circle cx="10" cy="7" r="3" fill="#818cf8"/>
            <path d="M6 15 C6 12 14 12 14 15" stroke="#818cf8" stroke-width="1.2" fill="none"/>
            <text x="26" y="14" font-family="'Inter', sans-serif" font-weight="700" font-size="11" fill="#ffffff">Amit Kumar</text>
          </g>

          <line x1="12" y1="40" x2="240" y2="40" stroke="rgba(255, 255, 255, 0.04)" stroke-width="1"/>

          <!-- Memory details badges -->
          <!-- Goal -->
          <g transform="translate(12, 54)">
            <text x="0" y="8" font-family="'Inter', sans-serif" font-weight="600" font-size="9.5" fill="#475569">GOAL</text>
            <text x="0" y="24" font-family="'Inter', sans-serif" font-weight="700" font-size="11.5" fill="#cbd5e1">Wealth Accumulation</text>
          </g>
          <!-- Risk Profile -->
          <g transform="translate(12, 104)">
            <text x="0" y="8" font-family="'Inter', sans-serif" font-weight="600" font-size="9.5" fill="#475569">RISK CAPACITY</text>
            <rect x="0" y="16" width="94" height="18" rx="4" fill="rgba(99, 102, 241, 0.1)" stroke="rgba(99, 102, 241, 0.2)" stroke-width="1"/>
            <text x="47" y="28" font-family="'Inter', sans-serif" font-weight="700" font-size="9.5" fill="#818cf8" text-anchor="middle">MODERATE RISK</text>
          </g>
          <!-- Horizon -->
          <g transform="translate(12, 166)">
            <text x="0" y="8" font-family="'Inter', sans-serif" font-weight="600" font-size="9.5" fill="#475569">INVESTMENT TENURE</text>
            <rect x="0" y="16" width="105" height="18" rx="4" fill="rgba(119, 242, 228, 0.1)" stroke="rgba(119, 242, 228, 0.2)" stroke-width="1"/>
            <text x="52.5" y="28" font-family="'Inter', sans-serif" font-weight="700" font-size="9.5" fill="#77f2e4" text-anchor="middle">SHORT-TERM picks</text>
          </g>
        </g>

        <!-- Settings buttons: Sign out (Y = 270) -->
        <g transform="translate(0, 270)">
          <rect width="252" height="34" rx="8" fill="rgba(255,255,255,0.015)" stroke="rgba(255,255,255,0.03)" stroke-width="1"/>
          <text x="126" y="21" font-family="'Inter', sans-serif" font-weight="700" font-size="11" fill="#f43f5e" text-anchor="middle">Sign Out Account</text>
        </g>
      </g>
    </g>
  </g>

  <!-- ==================== 2. EXPLODED BREAKDOWN: BRAND HEADER MODULE (X = 420, Y = 180) ==================== -->
  <g transform="translate(420, 180)">
    <rect width="210" height="26" rx="6" fill="#0d111a" stroke="rgba(255,255,255,0.06)" stroke-width="1"/>
    <text x="105" y="17" font-family="'JetBrains Mono', monospace" font-weight="700" font-size="9.5" fill="#77f2e4" text-anchor="middle">MODULE A: BRANDING HEADER</text>

    <!-- Detailed view of the Branding module -->
    <g transform="translate(0, 46)" filter="url(#dashboard-card-shadow)">
      <rect width="420" height="120" rx="16" fill="#111318" fill-opacity="0.9" stroke="url(#board-glass-border)" stroke-width="1.2"/>
      <rect x="0.5" y="0.5" width="419" height="119" rx="15.5" fill="none" stroke="#ffffff" stroke-opacity="0.04" stroke-width="1"/>

      <!-- Large exploder shield logo and labels -->
      <g transform="translate(24, 24)">
        <rect width="48" height="48" rx="12" fill="#0c111e" stroke="rgba(119, 242, 228, 0.25)" stroke-width="1.2"/>
        <image href="https://reduced-beige-7hamqau4r6.edgeone.app/a.png" x="8" y="8" width="32" height="32" filter="brightness(1.15)"/>
        
        <text x="64" y="24" font-family="'Sora', sans-serif" font-weight="800" font-size="18" fill="#ffffff" letter-spacing="-0.02em">WayaX Advisor</text>
        <text x="64" y="38" font-family="'JetBrains Mono', monospace" font-weight="700" font-size="9" fill="#64748b" letter-spacing="0.05em">ROBO-ADVISORY SYSTEM ASSEMBLY</text>
      </g>

      <!-- Collapse button in detail -->
      <g transform="translate(356, 32)">
        <rect width="36" height="36" rx="10" fill="rgba(255, 255, 255, 0.03)" stroke="rgba(255,255,255,0.08)" stroke-width="1"/>
        <rect x="9" y="9" width="18" height="18" rx="3.5" fill="none" stroke="#77f2e4" stroke-width="1.5"/>
        <line x1="15" y1="9" x2="15" y2="27" stroke="#77f2e4" stroke-width="1.5"/>
      </g>
    </g>
  </g>

  <!-- ==================== 3. EXPLODED BREAKDOWN: SEARCH & NEW CAPSULE (X = 420, Y = 360) ==================== -->
  <g transform="translate(420, 360)">
    <rect width="210" height="26" rx="6" fill="#0d111a" stroke="rgba(255,255,255,0.06)" stroke-width="1"/>
    <text x="105" y="17" font-family="'JetBrains Mono', monospace" font-weight="700" font-size="9.5" fill="#77f2e4" text-anchor="middle">MODULE B: SEARCH &amp; CAPSULES</text>

    <!-- Exploded Search & Capsules view -->
    <g transform="translate(0, 46)" filter="url(#dashboard-card-shadow)">
      <rect width="420" height="180" rx="16" fill="#111318" fill-opacity="0.9" stroke="url(#board-glass-border)" stroke-width="1.2"/>
      <rect x="0.5" y="0.5" width="419" height="179" rx="15.5" fill="none" stroke="#ffffff" stroke-opacity="0.04" stroke-width="1"/>

      <!-- Exploded New Chat Button -->
      <g transform="translate(24, 24)">
        <rect width="372" height="48" rx="12" fill="rgba(119, 242, 228, 0.08)" stroke="rgba(119, 242, 228, 0.25)" stroke-width="1.2"/>
        <path d="M148 24 L164 24 M156 16 L156 32" stroke="#77f2e4" stroke-width="2"/>
        <text x="176" y="28.5" font-family="'Inter', sans-serif" font-weight="800" font-size="13" fill="#77f2e4">Start New Advice Session</text>
      </g>

      <!-- Exploded History Search Bar -->
      <g transform="translate(24, 96)">
        <rect width="372" height="44" rx="10" fill="rgba(255, 255, 255, 0.01)" stroke="rgba(255, 255, 255, 0.05)" stroke-width="1"/>
        <circle cx="28" cy="22" r="5" stroke="#94a3b8" stroke-width="1.5" fill="none"/>
        <line x1="32" y1="26" x2="37" y2="31" stroke="#94a3b8" stroke-width="1.5"/>
        <text x="48" y="26.5" font-family="'Inter', sans-serif" font-weight="600" font-size="12" fill="#cbd5e1">Search history...</text>
        
        <!-- Subtle JetBrains shortcut tag -->
        <g transform="translate(322, 12)">
          <rect width="34" height="20" rx="4" fill="#0d0e12" stroke="rgba(255,255,255,0.06)" stroke-width="0.8"/>
          <text x="17" y="14" font-family="'JetBrains Mono', monospace" font-weight="700" font-size="9" fill="#475569" text-anchor="middle">⌘K</text>
        </g>
      </g>
    </g>
  </g>

  <!-- ==================== 4. EXPLODED BREAKDOWN: MEMORY SETTINGS PANEL (X = 420, Y = 600) ==================== -->
  <g transform="translate(420, 600)">
    <rect width="210" height="26" rx="6" fill="#0d111a" stroke="rgba(255,255,255,0.06)" stroke-width="1"/>
    <text x="105" y="17" font-family="'JetBrains Mono', monospace" font-weight="700" font-size="9.5" fill="#77f2e4" text-anchor="middle">MODULE C: ADVISORY MEMORY</text>

    <!-- Exploded Memory view (X = 420, Y = 646) -->
    <g transform="translate(0, 46)" filter="url(#dashboard-card-shadow)">
      <rect width="420" height="428" rx="20" fill="#111318" fill-opacity="0.9" stroke="url(#board-glass-border)" stroke-width="1.2"/>
      <rect x="0.5" y="0.5" width="419" height="427" rx="19.5" fill="none" stroke="#ffffff" stroke-opacity="0.04" stroke-width="1"/>

      <!-- Exploded user indicator header -->
      <g transform="translate(24, 24)">
        <rect width="38" height="38" rx="10" fill="rgba(129, 140, 248, 0.12)" stroke="rgba(129, 140, 248, 0.2)" stroke-width="1"/>
        <circle cx="19" cy="14" r="5" fill="#818cf8"/>
        <path d="M11 27 C11 22 27 22 27 27" stroke="#818cf8" stroke-width="1.5" fill="none"/>
        <text x="50" y="20" font-family="'Sora', sans-serif" font-weight="800" font-size="14" fill="#ffffff">Amit Kumar</text>
        <text x="50" y="32" font-family="'JetBrains Mono', monospace" font-weight="600" font-size="9" fill="#475569">PREMIUM ADVISORY CLASS</text>
      </g>

      <line x1="24" y1="84" x2="396" y2="84" stroke="rgba(255, 255, 255, 0.05)" stroke-width="1"/>

      <!-- Exploded profile Goal -->
      <g transform="translate(24, 108)">
        <text x="0" y="10" font-family="'JetBrains Mono', monospace" font-weight="800" font-size="9.5" fill="#64748b" letter-spacing="0.05em">PERSONALIZED INVESTMENT GOAL</text>
        <text x="0" y="28" font-family="'Inter', sans-serif" font-weight="700" font-size="14.5" fill="#e2e8f0">Wealth Accumulation &amp; Capital Growth</text>
      </g>

      <!-- Exploded profile Risk capacity -->
      <g transform="translate(24, 172)">
        <text x="0" y="10" font-family="'JetBrains Mono', monospace" font-weight="800" font-size="9.5" fill="#64748b" letter-spacing="0.05em">STATED VOLATILITY RISK TOLERANCE</text>
        <!-- Capsule with moderate risk colors -->
        <rect x="0" y="22" width="136" height="26" rx="6" fill="rgba(99, 102, 241, 0.12)" stroke="rgba(99, 102, 241, 0.3)" stroke-width="1.2"/>
        <circle cx="16" cy="35" r="3.5" fill="#818cf8" />
        <text x="73" y="38.5" font-family="'Inter', sans-serif" font-weight="800" font-size="11" fill="#a5b4fc" text-anchor="middle">MODERATE RISK</text>
        <text x="148" y="38" font-family="'Inter', sans-serif" font-weight="500" font-size="11.5" fill="#cbd5e1">Correspond to 5 RDX score limits</text>
      </g>

      <!-- Exploded profile Horizon -->
      <g transform="translate(24, 254)">
        <text x="0" y="10" font-family="'JetBrains Mono', monospace" font-weight="800" font-size="9.5" fill="#64748b" letter-spacing="0.05em">INVESTMENT PERIOD HORIZON</text>
        <!-- Capsule with Tenure colors -->
        <rect x="0" y="22" width="144" height="26" rx="6" fill="rgba(119, 242, 228, 0.12)" stroke="rgba(119, 242, 228, 0.3)" stroke-width="1.2"/>
        <circle cx="16" cy="35" r="3.5" fill="#77f2e4" />
        <text x="77" y="38.5" font-family="'Inter', sans-serif" font-weight="800" font-size="11" fill="#77f2e4" text-anchor="middle">SHORT-TERM PICKS</text>
        <text x="156" y="38" font-family="'Inter', sans-serif" font-weight="500" font-size="11.5" fill="#cbd5e1">Target period: 3 to 12 months</text>
      </g>

      <line x1="24" y1="340" x2="396" y2="340" stroke="rgba(255, 255, 255, 0.05)" stroke-width="1"/>

      <!-- Reset / Memory configuration stats buttons -->
      <g transform="translate(24, 356)">
        <rect width="372" height="48" rx="12" fill="rgba(244, 63, 94, 0.05)" stroke="rgba(244, 63, 94, 0.15)" stroke-width="1.2"/>
        <text x="186" y="29.5" font-family="'Inter', sans-serif" font-weight="800" font-size="13" fill="#f43f5e" text-anchor="middle">Clear Advisor Memory Cache</text>
      </g>
    </g>
  </g>

  <!-- ==================== 5. EXPLODED BREAKDOWN: CHAT HISTORY ITEM (X = 900, Y = 180) ==================== -->
  <g transform="translate(900, 180)">
    <rect width="210" height="26" rx="6" fill="#0d111a" stroke="rgba(255,255,255,0.06)" stroke-width="1"/>
    <text x="105" y="17" font-family="'JetBrains Mono', monospace" font-weight="700" font-size="9.5" fill="#77f2e4" text-anchor="middle">MODULE D: HISTORY ENTRY VARIANT</text>

    <!-- Detailed comparison of Active vs Normal Chat entry states -->
    <g transform="translate(0, 46)" filter="url(#dashboard-card-shadow)">
      <rect width="820" height="260" rx="20" fill="#111318" fill-opacity="0.9" stroke="url(#board-glass-border)" stroke-width="1.2"/>
      <rect x="0.5" y="0.5" width="819" height="259" rx="19.5" fill="none" stroke="#ffffff" stroke-opacity="0.04" stroke-width="1"/>

      <!-- State 1: Active/Selected Chat Session in full specs -->
      <g transform="translate(24, 24)">
        <rect width="772" height="74" rx="12" fill="url(#active-chat-highlight)" stroke="rgba(129, 140, 248, 0.25)" stroke-width="1.2"/>
        <!-- active left pulse highlight line -->
        <rect x="0" y="12" width="4" height="50" rx="2" fill="#818cf8"/>
        
        <!-- Double Candlestick chart icon in Active state -->
        <g transform="translate(24, 25)">
          <rect x="2" y="0" width="3.5" height="24" fill="#818cf8" rx="1"/>
          <rect x="10" y="6" width="3.5" height="12" fill="#818cf8" rx="1"/>
          <rect x="0" y="4" width="7.5" height="16" fill="rgba(129, 140, 248, 0.15)" stroke="#818cf8" stroke-width="0.8" rx="1.5"/>
          <rect x="8" y="8" width="7.5" height="8" fill="rgba(129, 140, 248, 0.15)" stroke="#818cf8" stroke-width="0.8" rx="1.5"/>
        </g>
        
        <text x="56" y="43" font-family="'Inter', sans-serif" font-weight="700" font-size="14.5" fill="#ffffff">IT Sector picks 30D</text>
        <text x="310" y="43" font-family="'JetBrains Mono', monospace" font-weight="700" font-size="9.5" fill="#475569">·  ACTIVE SESSION</text>

        <!-- Rename edit controls -->
        <g transform="translate(670, 24)">
          <!-- Edit button -->
          <g>
            <rect width="28" height="26" rx="6" fill="rgba(255,255,255,0.02)" stroke="rgba(255,255,255,0.06)" stroke-width="0.8"/>
            <path d="M8 18 L16 10 L20 14 L12 22 Z M15 11 L17 13" stroke="#94a3b8" stroke-width="1.2" fill="none"/>
          </g>
          <!-- Delete button -->
          <g transform="translate(36, 0)">
            <rect width="28" height="26" rx="6" fill="rgba(244,63,94,0.06)" stroke="rgba(244,63,94,0.15)" stroke-width="0.8"/>
            <path d="M8 8 L20 8 M10 8 L10 20 L18 20 L18 8 M12 12 L12 16 M16 12 L16 16" stroke="#f43f5e" stroke-width="1.2" fill="none"/>
          </g>
        </g>
      </g>

      <!-- State 2: Normal/Unselected Chat Session in full specs -->
      <g transform="translate(24, 116)">
        <rect width="772" height="74" rx="12" fill="rgba(255, 255, 255, 0.015)" stroke="rgba(255, 255, 255, 0.04)" stroke-width="1"/>
        
        <!-- Double Candlestick chart icon in normal state -->
        <g transform="translate(24, 25)">
          <rect x="2" y="0" width="3.5" height="24" fill="#475569" rx="1"/>
          <rect x="10" y="6" width="3.5" height="12" fill="#475569" rx="1"/>
          <rect x="0" y="4" width="7.5" height="16" fill="none" stroke="#475569" stroke-width="0.8" rx="1.5"/>
          <rect x="8" y="8" width="7.5" height="8" fill="none" stroke="#475569" stroke-width="0.8" rx="1.5"/>
        </g>
        
        <text x="56" y="43" font-family="'Inter', sans-serif" font-weight="600" font-size="14.5" fill="#94a3b8">SEBI Buy triggers Gokul</text>
        <text x="310" y="43" font-family="'JetBrains Mono', monospace" font-weight="700" font-size="9.5" fill="#475569">·  COLLAPSED HISTORY</text>

        <!-- Silent controls (appears only on hover - shown faded) -->
        <g transform="translate(670, 24)" opacity="0.3">
          <g>
            <rect width="28" height="26" rx="6" fill="none" stroke="#94a3b8" stroke-width="0.8"/>
            <path d="M8 18 L16 10 L20 14 L12 22 Z" stroke="#94a3b8" stroke-width="1" fill="none"/>
          </g>
          <g transform="translate(36, 0)">
            <rect width="28" height="26" rx="6" fill="none" stroke="#94a3b8" stroke-width="0.8"/>
            <path d="M8 8 L20 8 M10 8 L10 20 L18 20 L18 8" stroke="#94a3b8" stroke-width="1" fill="none"/>
          </g>
        </g>
      </g>

      <!-- Exploded metrics annotations -->
      <g transform="translate(24, 212)">
        <text x="0" y="16" font-family="'JetBrains Mono', monospace" font-weight="600" font-size="10" fill="#475569">
          * Chat item details update dynamically. Hover triggers rename forms and delete confirmation cards inside memory database.
        </text>
      </g>
    </g>
  </g>
</svg>
